#!OML:ASF I:\Actors\actors\Patient Classification 1\Patient 1\Session 1\Subject1.ASF
:FULLY-SPECIFIED
:DEGREES
1584
root 0.599369 17.4142 10.2586 12.229 0.476048 -8.60205
lowerback -0.117528 0.00386762 9.04052
upperback -10.6179 0.736107 2.0355
thorax -11.3465 -0.376777 -2.89717
lowerneck -12.444 -4.89975 -5.02584
upperneck 21.188 -7.68361 8.18243
head 9.2237 -3.17203 2.72889
rclavicle 2.57799e-014 -3.86636e-014
rhumerus -55.8698 -8.16154 -77.2114
rradius 32.9632
rwrist 36.8329
rhand -10.1802 -21.5868
rfingers 7.12502
rthumb 15.8101 -50.9612
lclavicle 2.57799e-014 -3.86636e-014
lhumerus -57.1447 1.43001 86.5094
lradius 48.8123
lwrist 19.4495
lhand -40.2174 -27.7663
lfingers 7.12502
lthumb -13.1773 1.79732
rfemur -2.28149 25.4345 26.0952
rtibia 2.19117
rfoot -16.1651 -29.5271
rtoes 5.5723
lfemur 8.28591 -49.2319 -13.4178
ltibia -5.49009
lfoot -28.2719 55.5924
ltoes 10.455
1585
root 0.597727 17.4153 10.2605 12.1902 0.48378 -8.61509
lowerback -0.105347 0.0451953 8.98521
upperback -10.6359 0.793493 2.05388
thorax -11.3666 -0.343534 -2.85196
lowerneck -12.4156 -4.92194 -5.03988
upperneck 21.2996 -7.72027 8.17348
head 9.26001 -3.1897 2.72502
rclavicle -7.41715e-015 1.18277e-014
rhumerus -55.6164 -9.0239 -76.4794
rradius 31.6452
rwrist 36.3444
rhand -9.03945 -21.8385
rfingers 7.12502
rthumb 16.9085 -51.1224
lclavicle -7.41715e-015 1.18277e-014
lhumerus -56.5474 1.9827 86.0955
lradius 47.1781
lwrist 18.9497
lhand -39.5132 -26.8944
lfingers 7.12502
lthumb -12.4985 2.71187
rfemur -2.24511 25.4863 26.1435
rtibia 2.21778
rfoot -16.1793 -29.528
rtoes 5.98647
lfemur 8.35199 -49.2226 -13.4454
ltibia -5.48945
lfoot -28.3785 55.557
ltoes 10.6507
1586
root 0.596453 17.4163 10.262 12.1538 0.485267 -8.62814
lowerback -0.0653706 0.0844281 8.96926
upperback -10.6724 0.852619 2.04578
thorax -11.4262 -0.316834 -2.85716
lowerneck -12.3747 -4.94863 -4.99723
upperneck 21.4141 -7.76888 8.13209
head 9.29223 -3.21211 2.69919
rclavicle 1.85118e-015 -5.26779e-015
rhumerus -55.5235 -10.0631 -75.5797
rradius 30.4241
rwrist 37.0373
rhand -8.68812 -21.8792
rfingers 7.12502
rthumb 17.2466 -51.1339
lclavicle 1.85118e-015 -5.26779e-015
lhumerus -56.0063 2.44811 85.7007
lradius 45.5789
lwrist 18.3465
lhand -39.2158 -26.6277
lfingers 7.12502
lthumb -12.2117 2.99584
rfemur -2.20605 25.4785 26.1887
rtibia 2.20326
rfoot -16.0175 -29.5633
rtoes 5.60748
lfemur 8.42528 -49.1872 -13.4762
ltibia -5.50834
lfoot -28.3849 55.5251
ltoes 10.7706
1587
root 0.595671 17.4163 10.2624 12.1323 0.493045 -8.65343
lowerback -0.0194641 0.101102 8.99694
upperback -10.7089 0.884631 2.03952
thorax -11.4937 -0.307778 -2.88187
lowerneck -12.3852 -4.96502 -4.99479
upperneck 21.5418 -7.8017 8.12421
head 9.34065 -3.22526 2.69273
rclavicle -3.03768e-014 5.48646e-014
rhumerus -55.5347 -11.2112 -74.5067
rradius 29.3397
rwrist 38.9889
rhand -8.17535 -21.7115
rfingers 7.12502
rthumb 17.7401 -50.9223
lclavicle -3.03768e-014 5.48646e-014
lhumerus -55.498 2.98209 85.2683
lradius 44.0443
lwrist 17.5617
lhand -39.2685 -26.4065
lfingers 7.12502
lthumb -12.2626 3.21395
rfemur -2.21397 25.4227 26.2342
rtibia 2.24091
rfoot -15.9172 -29.5409
rtoes 5.41639
lfemur 8.48737 -49.2253 -13.4907
ltibia -5.52207
lfoot -28.4913 55.5392
ltoes 10.9533
1588
root 0.594565 17.4158 10.2624 12.113 0.509391 -8.68541
lowerback 0.0144201 0.102095 9.01587
upperback -10.7346 0.894339 2.05178
thorax -11.5443 -0.306694 -2.87959
lowerneck -12.392 -4.96505 -5.0105
upperneck 21.6392 -7.80866 8.1321
head 9.37736 -3.22686 2.69792
rclavicle 1.73937e-014 -2.06736e-014
rhumerus -55.4947 -11.9782 -73.76
rradius 28.5276
rwrist 40.2339
rhand -6.62692 -21.7454
rfingers 7.12502
rthumb 19.2296 -50.8147
lclavicle 1.73937e-014 -2.06736e-014
lhumerus -54.9896 3.65672 84.7595
lradius 42.5205
lwrist 16.6668
lhand -39.1645 -25.9367
lfingers 7.12502
lthumb -12.1623 3.68973
rfemur -2.21926 25.4207 26.2909
rtibia 2.28531
rfoot -15.9218 -29.5025
rtoes 5.63166
lfemur 8.49065 -49.1954 -13.448
ltibia -5.51438
lfoot -28.46 55.4967
ltoes 10.9883
1589
root 0.593122 17.4149 10.263 12.0894 0.521577 -8.70758
lowerback 0.0417805 0.0986601 9.00749
upperback -10.7533 0.894559 2.05912
thorax -11.583 -0.307291 -2.86677
lowerneck -12.3833 -4.95265 -4.96643
upperneck 21.7131 -7.80529 8.12169
head 9.39897 -3.22158 2.6882
rclavicle -1.22874e-014 2.48481e-014
rhumerus -55.3471 -12.3321 -73.4897
rradius 28.0273
rwrist 39.8766
rhand -3.83116 -22.1825
rfingers 7.12502
rthumb 21.9161 -50.9612
lclavicle -1.22874e-014 2.48481e-014
lhumerus -54.4794 4.42083 84.1511
lradius 40.9658
lwrist 15.7706
lhand -38.5526 -25.4549
lfingers 7.12502
lthumb -11.5722 4.20556
rfemur -2.19554 25.4168 26.3486
rtibia 2.30056
rfoot -15.8268 -29.5077
rtoes 5.51826
lfemur 8.49759 -49.133 -13.4216
ltibia -5.50489
lfoot -28.2329 55.4851
ltoes 10.6592
1590
root 0.592323 17.4146 10.2635 12.0786 0.558042 -8.72062
lowerback 0.0387704 0.0838013 9.00718
upperback -10.7625 0.874809 2.05929
thorax -11.5945 -0.317504 -2.8643
lowerneck -12.3692 -4.94511 -4.92502
upperneck 21.7462 -7.81059 8.13473
head 9.4072 -3.21904 2.6857
rclavicle 7.45443e-015 2.68359e-014
rhumerus -55.1304 -12.74 -73.2349
rradius 27.5181
rwrist 39.0548
rhand -0.897381 -22.6407
rfingers 7.12502
rthumb 24.7306 -51.0621
lclavicle 7.45443e-015 2.68359e-014
lhumerus -54.0044 5.28993 83.4399
lradius 39.452
lwrist 14.9045
lhand -37.5992 -24.6033
lfingers 7.12502
lthumb -10.6526 5.10667
rfemur -2.18743 25.3482 26.3848
rtibia 2.30252
rfoot -15.6647 -29.5238
rtoes 5.21565
lfemur 8.49188 -49.1225 -13.3992
ltibia -5.5024
lfoot -28.0402 55.5144
ltoes 10.313
1591
root 0.592535 17.4144 10.264 12.055 0.623665 -8.68099
lowerback 0.0338972 0.0621786 8.98146
upperback -10.7637 0.842476 2.04715
thorax -11.5961 -0.331534 -2.86012
lowerneck -12.3294 -4.95167 -4.93949
upperneck 21.7296 -7.83038 8.19093
head 9.39848 -3.22502 2.70576
rclavicle -1.86236e-014 5.12864e-014
rhumerus -54.9593 -13.5006 -72.6004
rradius 26.7482
rwrist 38.8795
rhand 1.1287 -22.7542
rfingers 7.12502
rthumb 26.671 -50.8951
lclavicle -1.86236e-014 5.12864e-014
lhumerus -53.5659 6.21926 82.7033
lradius 37.9834
lwrist 14.0492
lhand -36.578 -23.1414
lfingers 7.12502
lthumb -9.66749 6.61676
rfemur -2.16358 25.2288 26.3591
rtibia 2.28378
rfoot -15.4965 -29.5197
rtoes 5.06255
lfemur 8.5048 -49.1854 -13.4759
ltibia -5.46352
lfoot -28.0531 55.521
ltoes 10.3943
1592
root 0.590598 17.4135 10.2612 12.0542 0.735224 -8.64196
lowerback 0.0449088 0.0198238 8.91869
upperback -10.7778 0.784759 2.05764
thorax -11.6252 -0.354267 -2.80815
lowerneck -12.3092 -4.9439 -4.95925
upperneck 21.7541 -7.83093 8.24407
head 9.40644 -3.22138 2.7281
rclavicle 2.086e-014 -3.13086e-014
rhumerus -54.8122 -14.5106 -71.7112
rradius 25.9452
rwrist 38.8076
rhand 2.7307 -23.0122
rfingers 7.12502
rthumb 28.2032 -50.9102
lclavicle 2.086e-014 -3.13086e-014
lhumerus -53.0793 7.1892 81.9698
lradius 36.3894
lwrist 13.1104
lhand -35.4103 -21.7864
lfingers 7.12502
lthumb -8.54079 8.02087
rfemur -2.19499 25.1621 26.3419
rtibia 2.32818
rfoot -15.418 -29.5648
rtoes 5.24882
lfemur 8.35527 -49.1172 -13.3955
ltibia -5.4149
lfoot -27.8466 55.3735
ltoes 10.452
1593
root 0.585503 17.4127 10.2535 12.1079 0.882451 -8.6666
lowerback 0.0689836 -0.0451826 8.86401
upperback -10.8203 0.704259 2.10939
thorax -11.6993 -0.388618 -2.71278
lowerneck -12.3056 -4.93826 -4.98664
upperneck 21.8326 -7.82649 8.2534
head 9.4343 -3.21915 2.73731
rclavicle 7.54139e-015 2.00773e-014
rhumerus -54.6827 -15.6875 -70.6338
rradius 25.1821
rwrist 38.7001
rhand 4.37729 -23.2875
rfingers 7.12502
rthumb 29.7758 -50.9151
lclavicle 7.54139e-015 2.00773e-014
lhumerus -52.5597 8.15035 81.2592
lradius 34.6631
lwrist 12.03
lhand -34.3278 -20.8167
lfingers 7.12502
lthumb -7.49595 9.03046
rfemur -2.32928 25.2133 26.3915
rtibia 2.44556
rfoot -15.4931 -29.7062
rtoes 5.78519
lfemur 7.94002 -48.7589 -12.9598
ltibia -5.40812
lfoot -27.1503 55.0149
ltoes 9.91639
1594
root 0.582066 17.4123 10.2482 12.1389 0.958585 -8.67508
lowerback 0.095197 -0.0735964 8.8224
upperback -10.8554 0.670977 2.13146
thorax -11.76 -0.402419 -2.66172
lowerneck -12.2828 -4.97029 -4.9716
upperneck 21.9006 -7.86643 8.18885
head 9.45331 -3.24269 2.70827
rclavicle 1.36292e-014 -1.59028e-014
rhumerus -54.6897 -17.2006 -69.1633
rradius 24.2897
rwrist 39.3123
rhand 5.95222 -23.124
rfingers 7.12502
rthumb 31.2778 -50.4722
lclavicle 1.36292e-014 -1.59028e-014
lhumerus -52.0827 9.01543 80.5978
lradius 32.9562
lwrist 10.6296
lhand -33.7046 -19.8856
lfingers 7.12502
lthumb -6.89445 9.98215
rfemur -2.40723 25.3014 26.4145
rtibia 2.50554
rfoot -15.6388 -29.815
rtoes 6.55689
lfemur 7.67143 -48.4483 -12.6759
ltibia -5.42429
lfoot -26.5788 54.7544
ltoes 9.34245
1595
root 0.580958 17.4118 10.2465 12.1639 0.950266 -8.65343
lowerback 0.0810418 -0.0582236 8.7825
upperback -10.8763 0.688179 2.12166
thorax -11.7726 -0.391753 -2.65176
lowerneck -12.3043 -4.9995 -4.93976
upperneck 22.0014 -7.91187 8.14226
head 9.49279 -3.26353 2.68132
rclavicle 5.93869e-015 2.38542e-014
rhumerus -54.7696 -19.0138 -67.3713
rradius 23.2961
rwrist 40.2209
rhand 7.50928 -23.1878
rfingers 7.12502
rthumb 32.7603 -50.2382
lclavicle 5.93869e-015 2.38542e-014
lhumerus -51.663 9.94713 79.8547
lradius 31.2828
lwrist 8.69098
lhand -33.3818 -19.2268
lfingers 7.12502
lthumb -6.58282 10.6509
rfemur -2.45142 25.3383 26.3828
rtibia 2.52827
rfoot -15.6725 -29.7981
rtoes 7.01314
lfemur 7.58487 -48.3742 -12.6284
ltibia -5.41506
lfoot -26.4815 54.7063
ltoes 9.28855
1596
root 0.58088 17.4108 10.2458 12.1945 0.915943 -8.62903
lowerback 0.0599208 -0.0460502 8.73727
upperback -10.8992 0.700502 2.11837
thorax -11.784 -0.382582 -2.63121
lowerneck -12.3944 -5.00844 -4.96882
upperneck 22.1725 -7.93721 8.16868
head 9.57427 -3.26897 2.69179
rclavicle -7.00716e-015 5.37713e-014
rhumerus -54.9451 -21.0587 -65.2681
rradius 22.2741
rwrist 41.1643
rhand 9.0665 -23.5504
rfingers 7.12502
rthumb 34.2404 -50.2805
lclavicle -7.00716e-015 5.37713e-014
lhumerus -51.3346 11.1179 78.8918
lradius 29.6449
lwrist 6.38162
lhand -32.9391 -19.0252
lfingers 7.12502
lthumb -6.15542 10.8654
rfemur -2.49606 25.2761 26.3411
rtibia 2.54044
rfoot -15.4785 -29.7149
rtoes 6.59755
lfemur 7.61515 -48.5454 -12.7173
ltibia -5.37815
lfoot -26.7667 54.8501
ltoes 9.53332
1597
root 0.580986 17.41 10.2462 12.192 0.876016 -8.58432
lowerback 0.0722829 -0.0593649 8.65859
upperback -10.9212 0.679516 2.11201
thorax -11.8178 -0.387384 -2.59217
lowerneck -12.5108 -5.01771 -5.01403
upperneck 22.3941 -7.97161 8.22726
head 9.68176 -3.27488 2.71503
rclavicle -2.72832e-014 1.07344e-014
rhumerus -55.3188 -23.2424 -62.9127
rradius 21.2685
rwrist 42.4077
rhand 10.4792 -24.0399
rfingers 7.12502
rthumb 35.5807 -50.4583
lclavicle -2.72832e-014 1.07344e-014
lhumerus -51.1066 12.4259 77.7491
lradius 28.1207
lwrist 4.08669
lhand -32.2238 -18.7306
lfingers 7.12502
lthumb -5.46483 11.1789
rfemur -2.47188 25.2174 26.2962
rtibia 2.48146
rfoot -15.2411 -29.6967
rtoes 5.94428
lfemur 7.78162 -48.8231 -12.9411
ltibia -5.36471
lfoot -27.1095 55.1022
ltoes 9.65498
